<?xml version="1.0" encoding="UTF-8" standalone="no"?>
<svg width="361px" height="271px" viewBox="0 0 361 271" version="1.1" xmlns="http://www.w3.org/2000/svg" xmlns:xlink="http://www.w3.org/1999/xlink" xmlns:sketch="http://www.bohemiancoding.com/sketch/ns">
    <!-- Generator: Sketch 3.3 (11970) - http://www.bohemiancoding.com/sketch -->
    <title>Slice 1</title>
    <desc>Created with Sketch.</desc>
    <defs></defs>
    <g id="Page-1" stroke="none" stroke-width="1" fill="none" fill-rule="evenodd" sketch:type="MSPage">
        <g id="menu_slice2" sketch:type="MSLayerGroup" transform="translate(-360.000000, -57.000000)">
            <g id="layer3">
                <rect id="rect8936" opacity="0.77899996" fill="#FFFFFF" sketch:type="MSShapeGroup" x="359.05109" y="194.40948" width="361.25558" height="132.89975"></rect>
                <rect id="pomer_sad_mlady" fill="#374845" sketch:type="MSShapeGroup" x="519.75861" y="213.27502" width="121.26881" height="26.870058"></rect>
                <g id="happy_mlady" transform="translate(384.909981, 206.296314)" sketch:type="MSShapeGroup">
                    <path d="M35.891505,33.7331701 C28.5695664,42.1560958 15.8217617,43.0896594 7.35084501,35.8232964 C-1.12007159,28.5569337 -2.13748724,15.8155476 5.072985,7.2970064 C12.2834579,-1.22153463 25.0178747,-2.32275746 33.5836714,4.83151315 C42.1494681,11.9857833 43.3344514,24.7126788 36.2366935,33.3253606" id="path9542" fill="#F9A5AB"></path>
                    <g id="g9544" transform="translate(6.932471, 0.000000)">
                        <path d="M14.2788509,0.121736278 C9.41473055,-0.0283892871 4.65850214,1.57365624 0.876466813,4.63607569 L0.335601634,9.77692958 L5.53091321,4.58161974 L3.61673965,13.0583314 L10.7264886,5.40190303 L8.53897529,10.8708181 L19.4765403,3.76133472 L21.6304824,1.77314351 C19.3044492,0.768774348 16.8109708,0.208660814 14.2788509,0.121736278 L14.2788509,0.121736278 Z" id="path9546" fill="#803300"></path>
                        <path d="M6.26403558,18.7428994 C5.47509964,19.6504664 4.10152867,19.7510577 3.18879057,18.96811 C2.2760525,18.1851624 2.16642618,16.812283 2.94335162,15.8944134 C3.72027701,14.9765438 5.09240532,14.8578871 6.01536679,15.6287566 C6.93832835,16.3996261 7.06601035,17.7709441 6.30123002,18.6989575" id="path9548" fill="#216778"></path>
                        <path d="M24.3113904,18.7428994 C23.5224542,19.6504682 22.1488811,19.7510596 21.2361426,18.96811 C20.3234051,18.1851619 20.2137795,16.8122826 20.9907054,15.8944134 C21.7676306,14.9765447 23.1397579,14.857888 24.0627191,15.6287566 C24.9856809,16.3996259 25.1133632,17.7709439 24.3485831,18.6989575" id="path9550" fill="#216778"></path>
                        <path d="M24.2608179,30.8140489 C20.2229385,35.4590993 13.2637327,36.1504937 8.3908379,32.3907251 C3.51794315,28.630956 2.42138529,21.7239929 5.89021476,16.6398815" id="path9552" fill="#C83737" transform="translate(14.064373, 25.725652) rotate(-37.841216) translate(-14.064373, -25.725652) "></path>
                    </g>
                </g>
                <g id="sad_mlady" transform="translate(659.357540, 206.296314)" sketch:type="MSShapeGroup">
                    <g id="g9556" transform="translate(0.065236, 0.009934)" fill="#EC5E5E">
                        <path d="M35.6394579,33.7232354 C28.3175195,42.1461623 15.5697137,43.0797265 7.09879632,35.8133628 C-1.37212107,28.5469998 -2.38953655,15.8056126 4.82093674,7.28707114 C12.0314099,-1.23147032 24.7658273,-2.33269311 33.3316241,4.82157802 C41.8974212,11.9758489 43.0824039,24.7027454 35.9846447,33.315427" id="path9558"></path>
                    </g>
                    <path d="M21.0245116,0.121734198 C16.1603912,-0.0283911716 11.4041627,1.5736546 7.62212752,4.6360743 L7.08126303,9.7769275 L12.276575,4.58161835 L10.3624017,13.0583293 L17.4721503,5.40190165 L15.2846367,10.870816 L26.2222013,3.76133333 L28.376141,1.77314213 C26.0501086,0.768772976 23.5566309,0.208659212 21.0245116,0.121734198 L21.0245116,0.121734198 Z" id="path9560" fill="#803300"></path>
                    <g id="g9562" transform="translate(9.133566, 17.596943)" fill="#216778">
                        <path d="M3.87612612,1.57822009 C3.08719043,1.96436794 1.71361953,2.00716722 0.800881297,1.67404207 C-0.111856755,1.34091687 -0.221483174,0.756790015 0.555442138,0.366258735 C1.33236721,-0.0242723371 2.70449474,-0.07475801 3.6274562,0.253227916 C4.55041846,0.581214177 4.67810066,1.16467704 3.91331982,1.55952434" id="path9564"></path>
                        <path d="M21.9234845,1.57822009 C21.1345488,1.96436794 19.7609779,2.00716722 18.8482396,1.67404207 C17.935502,1.3409167 17.8258762,0.756789863 18.6028018,0.366258735 C19.3797269,-0.0242723371 20.7518544,-0.07475801 21.6748159,0.253227916 C22.5977781,0.581214177 22.7254603,1.16467704 21.9606795,1.55952434" id="path9566"></path>
                    </g>
                    <path d="M31.0064756,37.5947581 C26.9685956,42.2398077 20.0093899,42.931201 15.1364957,39.1714319 C10.2636007,35.4116636 9.16704181,28.5047012 12.6358701,23.4205893" id="path9568" fill="#C83737" transform="translate(20.810030, 32.506359) rotate(37.841216) translate(-20.810030, -32.506359) "></path>
                </g>
                <g id="happy_stary" transform="translate(385.000000, 257.000000)" sketch:type="MSShapeGroup">
                    <path d="M34.62285,35.38927 C34.62285,35.38927 24.98535,50.67878 28.76739,52.7139 L29.30825,56.13023 L24.11294,52.67771 L26.02711,58.31087 L18.91737,53.22282 L21.10488,56.85716 C14.73167,50.9598 8.03011,42.74967 6.6128,35.67342 C10.40189,37.31752 17.49194,38.56899 21.18371,38.23264 C24.87549,37.89628 34.62285,35.38927 34.62285,35.38927 L34.62285,35.38927 Z" id="path9620" fill="#666666"></path>
                    <path d="M35.94009,34.16743 C28.6181495,42.5903537 15.8703451,43.5239145 7.39943,36.25755 C-1.07148648,28.9911872 -2.08890212,16.2498013 5.12157,7.73126 C12.3320442,-0.787282245 25.0664636,-1.8885037 33.63226,5.26577 C42.1980576,12.4200411 43.38304,25.1469384 36.28528,33.75962" id="path9622" fill="#F9A5AB"></path>
                    <g id="g9624" transform="translate(9.340642, 15.426440)" fill="#216778">
                        <path d="M3.90447894,3.75072604 C3.11554284,4.65829284 1.74197195,4.75888383 0.829234063,3.97593605 C-0.0835040058,3.1929885 -0.193130426,1.8201092 0.5837949,0.902239555 C1.3607205,-0.0156300594 2.73284905,-0.13428648 3.65581037,0.636583424 C4.57877177,1.40745276 4.70645394,2.77877045 3.941674,3.70678388" id="path9626"></path>
                        <path d="M21.9518335,3.75072604 C21.1628974,4.65829284 19.7893266,4.75888383 18.8765887,3.97593605 C17.9638506,3.1929885 17.8542242,1.8201092 18.6311495,0.902239555 C19.4080751,-0.0156300594 20.7802037,-0.13428648 21.703165,0.636583424 C22.626126,1.40745316 22.7538075,2.7787708 21.9890272,3.70678388" id="path9628"></path>
                    </g>
                    <path d="M31.2419154,31.2483123 C27.2040371,35.8933639 20.2448312,36.5847599 15.3719354,32.8249923 C10.4990439,29.0652225 9.40248761,22.1582622 12.8713154,17.0741523" id="path9630" fill="#C83737" transform="translate(21.045472, 26.159920) rotate(-37.841217) translate(-21.045472, -26.159920) "></path>
                    <g id="g9632" transform="translate(5.841884, 17.466260)" stroke="#000000">
                        <rect id="rect9634" stroke-width="1.09941331" x="0.106116329" y="0.147294399" width="10.765536" height="4.83382398"></rect>
                        <rect id="rect9636" stroke-width="1.09941331" x="18.2991196" y="0.147294399" width="10.765536" height="4.83382398"></rect>
                        <path id="path9638" stroke-width="0.80227458" d="M18.6656446,1.94419923 L11.3415501,1.88525206"></path>
                    </g>
                </g>
                <g id="sad_stary" transform="translate(659.000000, 257.000000)" sketch:type="MSShapeGroup">
                    <path d="M35.26497,35.38927 C35.26497,35.38927 25.62747,50.67878 29.40951,52.7139 L29.95037,56.13023 L24.75506,52.67771 L26.66923,58.31087 L19.55948,53.22282 L21.747,56.85716 C15.37379,50.9598 8.67222,42.74967 7.25492,35.67342 C11.04401,37.31752 18.13406,38.56899 21.82583,38.23264 C25.51761,37.89628 35.26497,35.38927 35.26497,35.38927 L35.26497,35.38927 Z" id="path9642" fill="#B3B3B3"></path>
                    <g id="g9644" transform="translate(0.506729, 0.191431)">
                        <g id="g9646" transform="translate(0.054679, 0.252773)" fill="#EC5E5E">
                            <path d="M35.6394579,33.7232354 C28.3175195,42.1461623 15.5697137,43.0797265 7.09879632,35.8133628 C-1.37212107,28.5469998 -2.38953655,15.8056126 4.82093674,7.28707114 C12.0314099,-1.23147032 24.7658273,-2.33269311 33.3316241,4.82157802 C41.8974212,11.9758489 43.0824039,24.7027454 35.9846447,33.315427" id="path9648"></path>
                        </g>
                        <g id="g9650" transform="translate(9.123009, 17.839781)" fill="#216778">
                            <path d="M3.87612612,1.57822009 C3.08719043,1.96436794 1.71361953,2.00716722 0.800881297,1.67404207 C-0.111856755,1.34091687 -0.221483174,0.756790015 0.555442138,0.366258735 C1.33236721,-0.0242723371 2.70449474,-0.07475801 3.6274562,0.253227916 C4.55041846,0.581214177 4.67810066,1.16467704 3.91331982,1.55952434" id="path9652"></path>
                            <path d="M21.9234845,1.57822009 C21.1345488,1.96436794 19.7609779,2.00716722 18.8482396,1.67404207 C17.935502,1.3409167 17.8258762,0.756789863 18.6028018,0.366258735 C19.3797269,-0.0242723371 20.7518544,-0.07475801 21.6748159,0.253227916 C22.5977781,0.581214177 22.7254603,1.16467704 21.9606795,1.55952434" id="path9654"></path>
                        </g>
                        <path d="M30.9959135,37.837595 C26.9580331,42.4826443 19.9988275,43.1740371 15.1259335,39.4142677 C10.2530402,35.6544984 9.15648281,28.7475367 12.6253114,23.6634258" id="path9656" fill="#C83737" transform="translate(20.799469, 32.749196) rotate(37.841216) translate(-20.799469, -32.749196) "></path>
                        <g id="g9658" transform="translate(5.553990, 17.975112)" stroke="#000000">
                            <rect id="rect9660" stroke-width="1.09941331" x="0.106116329" y="0.147294398" width="10.7655361" height="4.83382396"></rect>
                            <rect id="rect9662" stroke-width="1.09941331" x="18.2991197" y="0.147294398" width="10.7655361" height="4.83382396"></rect>
                            <path id="path9664" stroke-width="0.802274582" d="M18.6656447,1.94419923 L11.3415501,1.88525205"></path>
                        </g>
                    </g>
                    <path d="M35.26497,35.38927 C35.26497,35.38927 25.62747,50.67878 29.40951,52.7139 L29.95037,56.13023 L24.75506,52.67771 L26.66923,58.31087 L19.55948,53.22282 L21.747,56.85716 C15.37379,50.9598 8.67222,42.74967 7.25492,35.67342 C11.04401,37.31752 18.13406,38.56899 21.82583,38.23264 C25.51761,37.89628 35.26497,35.38927 35.26497,35.38927 L35.26497,35.38927 Z" id="path9666" fill="#666666"></path>
                    <g id="g9668" transform="translate(0.506729, 0.191431)">
                        <g id="g9670" transform="translate(0.054679, 0.252773)" fill="#EC5E5E">
                            <path d="M35.6394579,33.7232354 C28.3175195,42.1461623 15.5697137,43.0797265 7.09879632,35.8133628 C-1.37212107,28.5469998 -2.38953655,15.8056126 4.82093674,7.28707114 C12.0314099,-1.23147032 24.7658273,-2.33269311 33.3316241,4.82157802 C41.8974212,11.9758489 43.0824039,24.7027454 35.9846447,33.315427" id="path9672"></path>
                        </g>
                        <g id="g9674" transform="translate(9.123009, 17.839781)" fill="#216778">
                            <path d="M3.87612612,1.57822009 C3.08719043,1.96436794 1.71361953,2.00716722 0.800881297,1.67404207 C-0.111856755,1.34091687 -0.221483174,0.756790015 0.555442138,0.366258735 C1.33236721,-0.0242723371 2.70449474,-0.07475801 3.6274562,0.253227916 C4.55041846,0.581214177 4.67810066,1.16467704 3.91331982,1.55952434" id="path9676"></path>
                            <path d="M21.9234845,1.57822009 C21.1345488,1.96436794 19.7609779,2.00716722 18.8482396,1.67404207 C17.935502,1.3409167 17.8258762,0.756789863 18.6028018,0.366258735 C19.3797269,-0.0242723371 20.7518544,-0.07475801 21.6748159,0.253227916 C22.5977781,0.581214177 22.7254603,1.16467704 21.9606795,1.55952434" id="path9678"></path>
                        </g>
                        <path d="M30.9959135,37.837595 C26.9580331,42.4826443 19.9988275,43.1740371 15.1259335,39.4142677 C10.2530402,35.6544984 9.15648281,28.7475367 12.6253114,23.6634258" id="path9680" fill="#C83737" transform="translate(20.799469, 32.749196) rotate(37.841216) translate(-20.799469, -32.749196) "></path>
                        <g id="g9682" transform="translate(5.553990, 17.975112)" stroke="#000000">
                            <rect id="rect9684" stroke-width="1.09941331" x="0.106116329" y="0.147294398" width="10.7655361" height="4.83382396"></rect>
                            <rect id="rect9686" stroke-width="1.09941331" x="18.2991197" y="0.147294398" width="10.7655361" height="4.83382396"></rect>
                            <path id="path9688" stroke-width="0.802274582" d="M18.6656447,1.94419923 L11.3415501,1.88525205"></path>
                        </g>
                    </g>
                </g>
                <path d="M0.41988,0.4002 L365.9144,180.70885" id="pojitko" stroke="#FFFFFF" stroke-width="2.20000005" stroke-dasharray="13.20000029,4.4000001" fill="#FFFFFF" sketch:type="MSShapeGroup"></path>
                <rect id="pomer_happy_mlady" fill="#D5006C" sketch:type="MSShapeGroup" x="444.33038" y="213.27502" width="196.63635" height="26.870058"></rect>
                <rect id="pomer_sad_stary" fill="#374845" sketch:type="MSShapeGroup" x="445.51233" y="272.99329" width="196.22214" height="26.870058"></rect>
                <rect id="pomer_happy_stary" fill="#D5006C" sketch:type="MSShapeGroup" x="445.03748" y="272.99329" width="196.22214" height="26.870058"></rect>
                <text id="popularity-old" fill="#FFFFFF" sketch:type="MSTextLayer" font-family="Helvetica" font-size="25" font-weight="normal">
                    <tspan x="447.04883" y="234.05255">00</tspan>
                </text>
                <text id="popularity-young" fill="#FFFFFF" sketch:type="MSTextLayer" font-family="Helvetica" font-size="25" font-weight="normal">
                    <tspan x="447.04883" y="294.09595">00</tspan>
                </text>
                <rect id="rect18983" opacity="0.78" fill="#FFFFFF" sketch:type="MSShapeGroup" x="521.66486" y="61" width="198.64181" height="67.083819"></rect>
                <rect id="rect8836" fill="#999999" sketch:type="MSShapeGroup" x="359.05109" y="116.40948" width="361.25558" height="73.89975"></rect>
                <g id="g8822" transform="translate(380.909981, 128.296314)" sketch:type="MSShapeGroup">
                    <path d="M35.891505,33.7331701 C28.5695664,42.1560958 15.8217617,43.0896594 7.35084501,35.8232964 C-1.12007159,28.5569337 -2.13748724,15.8155476 5.072985,7.2970064 C12.2834579,-1.22153463 25.0178747,-2.32275746 33.5836714,4.83151315 C42.1494681,11.9857833 43.3344514,24.7126788 36.2366935,33.3253606" id="path8824" fill="#F9A5AB"></path>
                    <g id="g8826" transform="translate(6.932471, 0.000000)">
                        <path d="M14.2788509,0.121736278 C9.41473055,-0.0283892871 4.65850214,1.57365624 0.876466813,4.63607569 L0.335601634,9.77692958 L5.53091321,4.58161974 L3.61673965,13.0583314 L10.7264886,5.40190303 L8.53897529,10.8708181 L19.4765403,3.76133472 L21.6304824,1.77314351 C19.3044492,0.768774348 16.8109708,0.208660814 14.2788509,0.121736278 L14.2788509,0.121736278 Z" id="path8828" fill="#803300"></path>
                        <path d="M6.26403558,18.7428994 C5.47509964,19.6504664 4.10152867,19.7510577 3.18879057,18.96811 C2.2760525,18.1851624 2.16642618,16.812283 2.94335162,15.8944134 C3.72027701,14.9765438 5.09240532,14.8578871 6.01536679,15.6287566 C6.93832835,16.3996261 7.06601035,17.7709441 6.30123002,18.6989575" id="path8830" fill="#216778"></path>
                        <path d="M24.3113904,18.7428994 C23.5224542,19.6504682 22.1488811,19.7510596 21.2361426,18.96811 C20.3234051,18.1851619 20.2137795,16.8122826 20.9907054,15.8944134 C21.7676306,14.9765447 23.1397579,14.857888 24.0627191,15.6287566 C24.9856809,16.3996259 25.1133632,17.7709439 24.3485831,18.6989575" id="path8832" fill="#216778"></path>
                        <path d="M24.2608179,30.8140489 C20.2229385,35.4590993 13.2637327,36.1504937 8.3908379,32.3907251 C3.51794315,28.630956 2.42138529,21.7239929 5.89021476,16.6398815" id="path8834" fill="#C83737" transform="translate(14.064373, 25.725652) rotate(-37.841216) translate(-14.064373, -25.725652) "></path>
                    </g>
                </g>
                <g id="g8838" transform="translate(662.000010, 127.862060)" sketch:type="MSShapeGroup">
                    <path d="M34.62285,35.38927 C34.62285,35.38927 24.98535,50.67878 28.76739,52.7139 L29.30825,56.13023 L24.11294,52.67771 L26.02711,58.31087 L18.91737,53.22282 L21.10488,56.85716 C14.73167,50.9598 8.03011,42.74967 6.6128,35.67342 C10.40189,37.31752 17.49194,38.56899 21.18371,38.23264 C24.87549,37.89628 34.62285,35.38927 34.62285,35.38927 L34.62285,35.38927 Z" id="path8840" fill="#666666"></path>
                    <path d="M35.94009,34.16743 C28.6181495,42.5903537 15.8703451,43.5239145 7.39943,36.25755 C-1.07148648,28.9911872 -2.08890212,16.2498013 5.12157,7.73126 C12.3320442,-0.787282245 25.0664636,-1.8885037 33.63226,5.26577 C42.1980576,12.4200411 43.38304,25.1469384 36.28528,33.75962" id="path8842" fill="#F9A5AB"></path>
                    <g id="g8844" transform="translate(9.340642, 15.426440)" fill="#216778">
                        <path d="M3.90447894,3.75072604 C3.11554284,4.65829284 1.74197195,4.75888383 0.829234063,3.97593605 C-0.0835040058,3.1929885 -0.193130426,1.8201092 0.5837949,0.902239555 C1.3607205,-0.0156300594 2.73284905,-0.13428648 3.65581037,0.636583424 C4.57877177,1.40745276 4.70645394,2.77877045 3.941674,3.70678388" id="path8846"></path>
                        <path d="M21.9518335,3.75072604 C21.1628974,4.65829284 19.7893266,4.75888383 18.8765887,3.97593605 C17.9638506,3.1929885 17.8542242,1.8201092 18.6311495,0.902239555 C19.4080751,-0.0156300594 20.7802037,-0.13428648 21.703165,0.636583424 C22.626126,1.40745316 22.7538075,2.7787708 21.9890272,3.70678388" id="path8848"></path>
                    </g>
                    <path d="M31.2419154,31.2483123 C27.2040371,35.8933639 20.2448312,36.5847599 15.3719354,32.8249923 C10.4990439,29.0652225 9.40248761,22.1582622 12.8713154,17.0741523" id="path8850" fill="#C83737" transform="translate(21.045472, 26.159920) rotate(-37.841217) translate(-21.045472, -26.159920) "></path>
                    <g id="g8852" transform="translate(5.841884, 17.466260)" stroke="#000000">
                        <rect id="rect8854" stroke-width="1.09941331" x="0.106116329" y="0.147294399" width="10.765536" height="4.83382398"></rect>
                        <rect id="rect8856" stroke-width="1.09941331" x="18.2991196" y="0.147294399" width="10.765536" height="4.83382398"></rect>
                        <path id="path8858" stroke-width="0.80227458" d="M18.6656446,1.94419923 L11.3415501,1.88525206"></path>
                    </g>
                </g>
                <g id="tv" transform="translate(582.171984, 70.646908)" sketch:type="MSShapeGroup">
                    <path d="M5.58986476,10.6890561 C3.06473685,10.6890561 0.963523238,12.7907016 0.963523238,15.3158296 L0.963523238,30.0855482 C0.963523238,32.6106761 3.06473685,34.7118897 5.58986476,34.7118897 L26.1162949,34.7118897 C28.6414341,34.7118897 30.7426364,32.6106761 30.7426364,30.0855482 L30.7426364,15.3158296 C30.7426364,12.7907016 28.6414341,10.6890561 26.1162949,10.6890561 L5.58986476,10.6890561 Z M5.58986476,15.0718683 L26.1162949,15.0718683 C26.2891661,15.0718683 26.3598356,15.1430265 26.3598356,15.3158296 L26.3598356,30.0855482 C26.3598356,30.2584081 26.289132,30.3290775 26.1162949,30.3290775 L5.58986476,30.3290775 C5.41700485,30.3290775 5.34633541,30.0855482 5.34633541,30.0855482 L5.34633541,15.3158296 C5.34633541,15.1429696 5.41703895,15.0718683 5.58986476,15.0718683 L5.58986476,15.0718683 Z" id="rect13839-1" fill="#FF0000"></path>
                    <path d="M25.4715855,0.218601239 L16.1742523,10.9548195 L6.21281748,0.218601239" id="path13841-30" stroke="#FF0000" stroke-width="1.90652068"></path>
                </g>
                <g id="net" transform="translate(535.322722, 70.193643)" stroke="#FF0000" stroke-width="1.19172984" sketch:type="MSShapeGroup">
                    <ellipse id="path13835-28" cx="17.3596239" cy="17.4367345" rx="17.13177" ry="17.1133362"></ellipse>
                    <path id="path13837-1" d="M17.5366485,0.134308201 L17.182602,34.57579"></path>
                    <path d="M34.5711786,17.0594648 C34.5711786,17.0594648 23.6333014,18.5218624 18.1285197,18.6268534 C12.1086871,18.7416661 0.0950210197,17.5997014 0.0950210197,17.5997014" id="path13849-7"></path>
                    <path d="M2.33546456,25.7526084 C2.33546456,25.7526084 12.4298132,26.8708034 17.4980705,26.8836178 C22.5644777,26.8964323 32.6606765,25.82968 32.6606765,25.82968" id="path13853-7"></path>
                    <path d="M12.9074552,0.823386953 C12.9074552,0.823386953 9.44807933,10.4474631 8.99844712,18.6251941 C8.5488149,26.8029237 11.8874981,33.607089 11.8874981,33.607089" id="path13855-8"></path>
                    <path d="M22.6277775,0.823386953 C22.6277775,0.823386953 26.0871533,10.4474631 26.5367855,18.6251941 C26.9864178,26.8029237 23.6477346,33.607089 23.6477346,33.607089" id="path13857-7"></path>
                    <path d="M2.33546456,9.86575484 C2.33546456,9.86575484 12.4298132,8.74755986 17.4980705,8.73474539 C22.5644777,8.72193093 32.6606765,9.78868321 32.6606765,9.78868321" id="path13859-3"></path>
                </g>
                <g id="radio" transform="translate(625.226553, 69.989385)" sketch:type="MSShapeGroup">
                    <path d="M5.0396162,11.3448257 C2.51447692,11.3448257 0.413263306,13.4464599 0.413263306,15.9715992 L0.413263306,30.7413178 C0.413263306,33.2664457 2.51447692,35.3676593 5.0396162,35.3676593 L25.5660349,35.3676593 C28.0911742,35.3676593 30.1923878,33.2664457 30.1923878,30.7413178 L30.1923878,15.9715992 C30.1923878,13.4464599 28.0911742,11.3448257 25.5660349,11.3448257 L5.0396162,11.3448257 Z" id="rect13839-7-8" fill="#FF0000"></path>
                    <path d="M23.9812527,12.5656893 L3.51355653,0.874370853" id="path13841-4-6" stroke="#FF0000" stroke-width="1.90652068" fill="#FFFFFF"></path>
                    <rect id="rect13895-7" fill="#000000" x="13.6266061" y="19.0767121" width="12.6648243" height="12.4164935"></rect>
                    <rect id="rect13897-51" fill="#000000" x="2.64755188" y="14.2963232" width="24.5942057" height="3.34290218"></rect>
                </g>
                <g id="noviny" transform="translate(667.989682, 68.405743)" sketch:type="MSShapeGroup">
                    <g id="noviny-08" transform="translate(0.413719, 0.033461)" stroke="#000000" stroke-width="1.55535758" fill="#FF0000">
                        <rect id="rect13966-7-5" x="7.14452413" y="0.709092812" width="22.0849486" height="30.1637643"></rect>
                        <rect id="rect13966-1-2" x="3.80161092" y="4.30037776" width="22.0849486" height="30.1637643"></rect>
                        <rect id="rect13966-9" x="0.518397872" y="7.5094885" width="22.0849486" height="30.1637643"></rect>
                    </g>
                    <rect id="rect13968-5" fill="#000000" x="2.46265418" y="15.2044999" width="8.62350922" height="19.2345901"></rect>
                    <rect id="rect13970-1" fill="#000000" x="12.079972" y="15.4048683" width="8.62350922" height="19.2345901"></rect>
                </g>
            </g>
        </g>
    </g>
</svg>